# xmcd
#
# Track frame offsets:
#	150
#	18835
#	36057
#	49295
#	64672
#	82370
#	96232
#	111340
#	131397
#	150700
#	165670
#	185575
#	208642
#	235425
#	264242
#	288105
#
# Disc length: 4353 seconds
#
# Revision: 0
# Processed by: cddbd v1.5.1PL0 Copyright (c) Steve Scherf et al.
# Submitted via: dBpowerAMP V4.0
#
DISCID=de10ff10
DTITLE=Deluxury - De Best Of 1979-?
DYEAR=1900
DGENRE=Blues
TTITLE0=B-4 You Accuse Me
TTITLE1=Leavin' Again
TTITLE2=Operator 
TTITLE3=Ruby Baby
TTITLE4=How Can I Love You
TTITLE5=You Lied to Me 
TTITLE6=All I Want is You
TTITLE7=Brown Eyed Girl 
TTITLE8=Hey Baby 
TTITLE9=You So Fine
TTITLE10=Stay Drunk All The Time
TTITLE11=Shake It On Down
TTITLE12=Mustang Sally
TTITLE13=Whiskey Drinkin' Man
TTITLE14=Maybe Someday
TTITLE15=Summertime
EXTD=
EXTT0=
EXTT1=
EXTT2=
EXTT3=
EXTT4=
EXTT5=
EXTT6=
EXTT7=
EXTT8=
EXTT9=
EXTT10=
EXTT11=
EXTT12=
EXTT13=
EXTT14=
EXTT15=
PLAYORDER=
